<?xml version="1.0" standalone="no"?><!DOCTYPE svg PUBLIC "-//W3C//DTD SVG 1.1//EN" "http://www.w3.org/Graphics/SVG/1.1/DTD/svg11.dtd"><svg t="1716706668351" class="icon" viewBox="0 0 1024 1024" version="1.1" xmlns="http://www.w3.org/2000/svg" p-id="5717" xmlns:xlink="http://www.w3.org/1999/xlink" width="256" height="256"><path d="M303.68 348.928H169.984a16 16 0 0 0-16 16v32c0 8.832 7.168 16 16 16h226.944a16 16 0 0 0 16-16V169.984a16 16 0 0 0-16-16h-32a16 16 0 0 0-16 16v133.76l-201.536-201.6a16 16 0 0 0-22.592 0l-22.656 22.656a16 16 0 0 0 0 22.592l201.6 201.6z m408.448 0h133.696a16 16 0 0 1 16 16v32a16 16 0 0 1-16 16H618.88a16 16 0 0 1-16-16V169.984a16 16 0 0 1 16-16h32a16 16 0 0 1 16 16v133.76l201.472-201.6a16 16 0 0 1 22.656 0l22.656 22.656a16 16 0 0 1 0 22.592l-201.6 201.6z m-363.2 363.2l-201.536 201.536a16 16 0 0 1-22.592 0l-22.656-22.656a16 16 0 0 1 0-22.656l201.6-201.472h-133.76a16 16 0 0 1-16-16v-32a16 16 0 0 1 16-16h226.944a16 16 0 0 1 16 16v226.944a16 16 0 0 1-16 16h-32a16 16 0 0 1-16-16v-133.76z m363.2-45.248h133.696a16 16 0 0 0 16-16v-32a16 16 0 0 0-16-16H618.88a16 16 0 0 0-16 16v226.944c0 8.832 7.104 16 16 16h32a16 16 0 0 0 16-16v-133.76l201.472 201.6a16 16 0 0 0 22.656 0l22.656-22.656a16 16 0 0 0 0-22.656l-201.6-201.472z" p-id="5718"></path></svg>